<svg width="95" height="95" viewBox="0 0 95 95" fill="none" xmlns="http://www.w3.org/2000/svg">
<path fill-rule="evenodd" clip-rule="evenodd" d="M24.113 47.5005C24.0754 47.5006 24.0378 47.5007 24.0001 47.5007C11.0623 47.5007 0.574219 37.0126 0.574219 24.0748C0.574219 11.1371 11.0623 0.648926 24.0001 0.648926C36.9379 0.648926 47.426 11.1371 47.426 24.0748C47.426 24.1892 47.4252 24.3035 47.4236 24.4175H47.4293C47.4277 24.3035 47.4269 24.1892 47.4269 24.0748C47.4269 11.1371 57.915 0.648926 70.8528 0.648926C83.7905 0.648926 94.2787 11.1371 94.2787 24.0748C94.2787 37.0126 83.7905 47.5007 70.8528 47.5007C70.1199 47.5007 69.395 47.4671 68.6793 47.4012V47.6004C69.395 47.5345 70.1199 47.5009 70.8528 47.5009C83.7905 47.5009 94.2787 57.989 94.2787 70.9268C94.2787 83.8645 83.7905 94.3527 70.8528 94.3527C58.8034 94.3527 48.8788 85.2555 47.5726 73.5547H47.2803C45.9741 85.2555 36.0495 94.3527 24.0001 94.3527C11.0623 94.3527 0.574219 83.8645 0.574219 70.9268C0.574219 57.989 11.0623 47.5009 24.0001 47.5009C24.0378 47.5009 24.0754 47.501 24.113 47.5011V47.5005Z" fill="#C3E956"/>
</svg>
