<svg width="254" height="254" viewBox="0 0 254 254" fill="none" xmlns="http://www.w3.org/2000/svg">
<path fill-rule="evenodd" clip-rule="evenodd" d="M177.204 106.657C177.329 106.608 177.455 106.558 177.581 106.507C177.456 106.56 177.331 106.612 177.207 106.665L177.204 106.657ZM106.461 76.6578C106.427 76.5757 106.393 76.4935 106.36 76.4111C94.8602 48.3727 108.268 16.321 136.306 4.82166C164.345 -6.67767 196.396 6.72992 207.896 34.7684C219.345 62.6843 206.104 94.5784 178.316 106.206C206.266 94.9737 238.088 108.386 249.537 136.302C261.036 164.341 247.629 196.392 219.59 207.892C191.552 219.391 159.5 205.983 148.001 177.945C147.35 176.359 146.78 174.76 146.287 173.153L145.857 173.33C146.634 174.82 147.35 176.359 148 177.945C159.5 205.983 146.092 238.035 118.054 249.534C90.0152 261.033 57.9635 247.626 46.4642 219.587C35.7545 193.474 46.6485 163.88 70.8451 150.65L70.587 150.02C44.0687 157.589 15.5326 144.167 4.82302 118.054C-6.6763 90.0152 6.7313 57.9636 34.7697 46.4642C62.8082 34.9649 94.8598 48.3725 106.359 76.4109C106.393 76.4934 106.427 76.5759 106.46 76.6584L106.461 76.6578Z" fill="#C3E956"/>
</svg>
