<svg width="150" height="150" viewBox="0 0 150 150" fill="none" xmlns="http://www.w3.org/2000/svg">
<path fill-rule="evenodd" clip-rule="evenodd" d="M74.9424 38.2479C74.9435 38.1684 74.9444 38.0888 74.9451 38.0092C74.9457 38.0888 74.9466 38.1684 74.9477 38.2479H74.9424ZM37.8901 74.9376C37.8306 74.9378 37.771 74.938 37.7114 74.938C17.1472 74.938 0.476562 58.2674 0.476562 37.7031C0.476562 17.1389 17.1472 0.468262 37.7114 0.468262C58.1735 0.468262 74.7806 16.9737 74.9451 37.397C75.1095 16.9737 91.7166 0.468262 112.179 0.468262C132.743 0.468262 149.414 17.1389 149.414 37.7031C149.414 58.2674 132.743 74.938 112.179 74.938C111.015 74.938 109.864 74.8846 108.727 74.7801V75.0962C109.864 74.9917 111.015 74.9383 112.179 74.9383C132.743 74.9383 149.414 91.6089 149.414 112.173C149.414 132.737 132.743 149.408 112.179 149.408C93.0265 149.408 77.2517 134.948 75.1755 116.35H74.7146C72.6384 134.948 56.8636 149.408 37.7114 149.408C17.1472 149.408 0.476562 132.737 0.476562 112.173C0.476562 91.6089 17.1472 74.9383 37.7114 74.9383C37.771 74.9383 37.8306 74.9385 37.8901 74.9387V74.9376Z" fill="#C3E956"/>
</svg>
