<svg width="127" height="126" viewBox="0 0 127 126" fill="none" xmlns="http://www.w3.org/2000/svg">
<path fill-rule="evenodd" clip-rule="evenodd" d="M76.5199 40.4222C76.5529 40.367 76.5857 40.3116 76.6183 40.256C76.5865 40.312 76.5549 40.3681 76.5236 40.4243L76.5199 40.4222ZM48.799 88.7739C43.4469 101.008 48.0366 115.572 59.8723 122.405C72.581 129.743 88.8316 125.389 96.1689 112.68C103.484 100.009 99.178 83.818 86.5574 76.4494C99.2488 83.6935 115.423 79.3271 122.738 66.6571C130.075 53.9484 125.721 37.6978 113.012 30.3605C100.36 23.0559 84.1982 27.3387 76.8145 39.9162C84.0157 27.2329 79.6438 11.0941 66.9916 3.7894C54.2829 -3.54798 38.0324 0.806347 30.695 13.5151C23.3883 26.1706 27.6757 42.3385 40.2617 49.7192C27.5771 42.5109 11.4325 46.8819 4.12603 59.5371C-3.21134 72.2458 1.14298 88.4963 13.8517 95.8337C25.687 102.667 40.594 99.36 48.5132 88.6089L48.799 88.7739ZM84.2521 75.2484L84.3645 75.0537C84.9944 75.4988 85.6487 75.9204 86.3271 76.3165C85.6449 75.9271 84.9526 75.5712 84.2521 75.2484Z" fill="#F14591"/>
</svg>
