<svg width="353" height="353" viewBox="0 0 353 353" fill="none" xmlns="http://www.w3.org/2000/svg">
<path fill-rule="evenodd" clip-rule="evenodd" d="M88.6445 176.431C88.5017 176.431 88.3588 176.432 88.2158 176.432C39.4956 176.432 0 136.936 0 88.2158C0 39.4956 39.4956 0 88.2158 0C136.936 0 176.432 39.4956 176.432 88.2158C176.432 88.6469 176.429 89.0772 176.422 89.5068H176.441C176.435 89.0772 176.432 88.6469 176.432 88.2158C176.432 39.4956 215.927 0 264.647 0C313.368 0 352.863 39.4956 352.863 88.2158C352.863 136.936 313.368 176.432 264.647 176.432C261.89 176.432 259.162 176.305 256.47 176.058V176.806C259.162 176.558 261.89 176.432 264.647 176.432C313.368 176.432 352.863 215.927 352.863 264.647C352.863 313.368 313.368 352.863 264.647 352.863C219.273 352.863 181.9 318.606 176.981 274.545H175.883C170.963 318.606 133.59 352.863 88.2158 352.863C39.4956 352.863 0 313.368 0 264.647C0 215.927 39.4956 176.432 88.2158 176.432C88.3588 176.432 88.5017 176.432 88.6445 176.433V176.431Z" fill="#C3E956"/>
</svg>
