<svg width="206" height="207" viewBox="0 0 206 207" fill="none" xmlns="http://www.w3.org/2000/svg">
<path fill-rule="evenodd" clip-rule="evenodd" d="M103.011 52.4875C103.013 52.3581 103.015 52.2286 103.016 52.0989C103.016 52.2286 103.018 52.3581 103.02 52.4875H103.011ZM51.771 103.228C51.6881 103.229 51.6051 103.229 51.5221 103.229C23.0823 103.229 0.0273438 80.1738 0.0273438 51.734C0.0273438 23.2942 23.0823 0.239258 51.5221 0.239258C79.8401 0.239258 102.819 23.0973 103.016 51.3691C103.212 23.0973 126.191 0.239258 154.509 0.239258C182.949 0.239258 206.004 23.2942 206.004 51.734C206.004 80.1738 182.949 103.229 154.509 103.229C152.9 103.229 151.308 103.155 149.737 103.011V103.447C151.308 103.303 152.9 103.229 154.509 103.229C182.949 103.229 206.004 126.284 206.004 154.724C206.004 183.164 182.949 206.219 154.509 206.219C128.022 206.219 106.206 186.221 103.335 160.501H102.696C99.825 186.221 78.0089 206.219 51.5221 206.219C23.0823 206.219 0.0273438 183.164 0.0273438 154.724C0.0273438 126.284 23.0823 103.229 51.5221 103.229C51.6051 103.229 51.6881 103.229 51.771 103.23V103.228Z" fill="#F14591"/>
</svg>
