<svg width="44" height="39" viewBox="0 0 44 39" fill="none" xmlns="http://www.w3.org/2000/svg">
<path d="M39.7614 4.27107C38.7352 3.23404 37.5167 2.4114 36.1756 1.85014C34.8345 1.28888 33.397 1 31.9453 1C30.4937 1 29.0562 1.28888 27.7151 1.85014C26.374 2.4114 25.1555 3.23404 24.1293 4.27107L21.9995 6.42225L19.8696 4.27107C17.7967 2.17733 14.9852 1.00109 12.0536 1.00109C9.12199 1.00109 6.31047 2.17733 4.23752 4.27107C2.16457 6.3648 1 9.20452 1 12.1655C1 15.1265 2.16457 17.9662 4.23752 20.0599L6.36734 22.2111L21.9995 38L37.6316 22.2111L39.7614 20.0599C40.7881 19.0234 41.6026 17.7927 42.1583 16.4382C42.714 15.0836 43 13.6317 43 12.1655C43 10.6993 42.714 9.24741 42.1583 7.89286C41.6026 6.53831 40.7881 5.30761 39.7614 4.27107Z" stroke="#F14591" stroke-width="2" stroke-linecap="round" stroke-linejoin="round"/>
</svg>
